#!OML:ASF X:\für Bonn\!DataBase\2005_08_11_Bastian_Final\c3d\Bastian.ASF
:FULLY-SPECIFIED
:DEGREES
31
root 7.14054 17.3086 -4.19564 208.762 87.723 -137.672
lowerback 18.2942 -0.643078 -3.41611
upperback 13.507 -0.184137 0.664058
thorax 4.39601 0.101734 2.68932
lowerneck 0.537627 -8.49107 -9.13825
upperneck 2.20841 -11.7728 17.4617
head 2.17371 -5.75646 6.44602
rclavicle 1.39149e-015 5.36719e-015
rhumerus -19.2355 11.7875 -80.8443
rradius 34.943
rwrist -3.72198
rhand -28.4846 -2.33437
rfingers 7.12502
rthumb -1.85397 -32.3061
lclavicle 1.39149e-015 5.36719e-015
lhumerus -3.37852 -20.0494 83.9178
lradius 41.3682
lwrist 22.4704
lhand -14.5165 -11.6676
lfingers 7.12502
lthumb 11.6311 17.9896
rfemur -15.8108 2.86013 20.8795
rtibia 35.1152
rfoot -12.3945 -3.49644
rtoes -17.5291
lfemur 1.57774 6.59633 -19.3899
ltibia 30.725
lfoot -9.36888 -9.07098
ltoes -3.9635
32
root 7.17875 17.2952 -4.19006 208.423 87.6647 -137.958
lowerback 18.7234 -0.671031 -3.30633
upperback 13.703 -0.178921 0.778823
thorax 4.39744 0.120022 2.75274
lowerneck 0.370861 -8.58689 -9.34501
upperneck 2.16758 -11.899 17.5755
head 2.22759 -5.81484 6.49873
rclavicle 1.12313e-014 6.75868e-015
rhumerus -18.5447 12.0548 -80.5179
rradius 34.8196
rwrist -3.75031
rhand -28.5557 -2.30897
rfingers 7.12502
rthumb -1.92261 -32.28
lclavicle 1.12313e-014 6.75868e-015
lhumerus -3.13745 -20.1282 84.0995
lradius 41.2668
lwrist 21.6543
lhand -14.3004 -11.4961
lfingers 7.12502
lthumb 11.8394 18.1492
rfemur -15.6947 2.92521 20.9724
rtibia 34.9401
rfoot -12.0426 -3.66444
rtoes -18.6797
lfemur 1.49127 6.5269 -19.3247
ltibia 31.2888
lfoot -9.79241 -9.12389
ltoes -4.28471
33
root 7.21548 17.2809 -4.18339 207.515 87.6187 -138.819
lowerback 19.156 -0.69352 -3.21838
upperback 13.9017 -0.166961 0.881513
thorax 4.40183 0.141219 2.81492
lowerneck 0.232793 -8.68444 -9.53333
upperneck 2.09662 -12.0247 17.6966
head 2.26765 -5.87489 6.55235
rclavicle 2.93207e-015 -1.56046e-014
rhumerus -17.8692 12.3571 -80.1978
rradius 34.7177
rwrist -3.82985
rhand -28.6964 -2.31353
rfingers 7.12502
rthumb -2.05852 -32.2833
lclavicle 2.93207e-015 -1.56046e-014
lhumerus -2.90549 -20.1837 84.2933
lradius 41.1412
lwrist 20.7382
lhand -14.1442 -11.2961
lfingers 7.12502
lthumb 11.99 18.3405
rfemur -15.579 3.00945 21.0214
rtibia 34.8071
rfoot -11.688 -3.75577
rtoes -19.1208
lfemur 1.36287 6.45816 -19.2895
ltibia 31.907
lfoot -10.2075 -9.15378
ltoes -4.81375
34
root 7.24951 17.2658 -4.17689 206.839 87.5556 -139.433
lowerback 19.6376 -0.718145 -3.10542
upperback 14.0919 -0.153346 0.99404
thorax 4.37301 0.165896 2.87353
lowerneck 0.126876 -8.78766 -9.68602
upperneck 2.00132 -12.1555 17.8015
head 2.29309 -5.9395 6.59655
rclavicle 2.13694e-015 1.88845e-015
rhumerus -17.1736 12.5247 -79.8632
rradius 34.5776
rwrist -3.75822
rhand -28.7821 -2.27996
rfingers 7.12502
rthumb -2.14131 -32.249
lclavicle 2.13694e-015 1.88845e-015
lhumerus -2.72479 -20.3042 84.484
lradius 41.0461
lwrist 19.9594
lhand -14.0369 -11.1673
lfingers 7.12502
lthumb 12.0935 18.4632
rfemur -15.445 3.06544 21.084
rtibia 34.7202
rfoot -11.3182 -3.82842
rtoes -19.5151
lfemur 1.21503 6.40186 -19.2299
ltibia 32.5752
lfoot -10.6336 -9.20311
ltoes -5.39931
35
root 7.28156 17.2478 -4.1686 206.13 87.4943 -140.068
lowerback 20.1695 -0.735389 -3.01032
upperback 14.2745 -0.131304 1.1077
thorax 4.31222 0.194682 2.94237
lowerneck -0.0262595 -8.89747 -9.85467
upperneck 1.97807 -12.3018 17.9302
head 2.35263 -6.00661 6.64588
rclavicle -2.28602e-015 6.01324e-015
rhumerus -16.5159 12.7543 -79.5349
rradius 34.4785
rwrist -3.76484
rhand -28.9277 -2.25248
rfingers 7.12502
rthumb -2.28186 -32.22
lclavicle -2.28602e-015 6.01324e-015
lhumerus -2.56889 -20.3581 84.6979
lradius 40.8869
lwrist 19.1362
lhand -13.9273 -11.1346
lfingers 7.12502
lthumb 12.1992 18.4896
rfemur -15.3025 3.15399 21.1533
rtibia 34.6939
rfoot -10.9461 -3.91222
rtoes -19.6786
lfemur 1.03859 6.37037 -19.155
ltibia 33.2883
lfoot -11.0085 -9.29906
ltoes -5.95544
36
root 7.31008 17.2306 -4.16073 205.125 87.4337 -141.02
lowerback 20.7248 -0.754685 -2.92077
upperback 14.4382 -0.112975 1.21691
thorax 4.22075 0.221749 3.01008
lowerneck -0.160876 -9.00621 -9.90302
upperneck 1.93156 -12.4401 17.9459
head 2.38607 -6.0719 6.64224
rclavicle -4.84538e-016 3.70236e-015
rhumerus -15.8628 12.9064 -79.2065
rradius 34.3698
rwrist -3.64325
rhand -29.0106 -2.23323
rfingers 7.12502
rthumb -2.3619 -32.1999
lclavicle -4.84538e-016 3.70236e-015
lhumerus -2.43851 -20.4372 84.88
lradius 40.7125
lwrist 18.6184
lhand -13.7727 -11.2471
lfingers 7.12502
lthumb 12.3483 18.3682
rfemur -15.2045 3.21586 21.1903
rtibia 34.7269
rfoot -10.5881 -3.92746
rtoes -19.6005
lfemur 0.795278 6.3055 -19.1075
ltibia 34.0521
lfoot -11.3386 -9.35551
ltoes -6.36726
37
root 7.33581 17.2145 -4.1521 204.093 87.3228 -141.995
lowerback 21.3089 -0.788538 -2.8101
upperback 14.6079 -0.105968 1.34305
thorax 4.12488 0.245065 3.08635
lowerneck -0.276045 -9.12043 -9.94811
upperneck 1.84872 -12.5826 17.9686
head 2.40667 -6.1414 6.64126
rclavicle -3.34828e-015 -6.67171e-015
rhumerus -15.1951 13.089 -78.8562
rradius 34.2762
rwrist -3.62291
rhand -29.1177 -2.16929
rfingers 7.12502
rthumb -2.46536 -32.1348
lclavicle -3.34828e-015 -6.67171e-015
lhumerus -2.2892 -20.4905 85.0752
lradius 40.4557
lwrist 18.1519
lhand -13.6594 -11.4526
lfingers 7.12502
lthumb 12.4575 18.1561
rfemur -15.1355 3.20651 21.2477
rtibia 34.8268
rfoot -10.2108 -3.91158
rtoes -19.3146
lfemur 0.506644 6.20519 -19.0394
ltibia 34.8602
lfoot -11.6354 -9.41127
ltoes -6.64912
38
root 7.35889 17.198 -4.14409 202.57 87.2059 -143.454
lowerback 21.9495 -0.834527 -2.72798
upperback 14.7667 -0.117327 1.47641
thorax 3.99396 0.257754 3.19023
lowerneck -0.408209 -9.22603 -10.0225
upperneck 1.78319 -12.7147 17.9994
head 2.43623 -6.20451 6.64683
rclavicle -6.03808e-015 -4.57205e-015
rhumerus -14.5538 13.3135 -78.4981
rradius 34.2231
rwrist -3.59706
rhand -29.279 -2.19295
rfingers 7.12502
rthumb -2.62119 -32.1566
lclavicle -6.03808e-015 -4.57205e-015
lhumerus -2.2184 -20.4949 85.2811
lradius 40.2536
lwrist 17.769
lhand -13.5033 -11.6538
lfingers 7.12502
lthumb 12.608 17.9457
rfemur -15.089 3.15332 21.2753
rtibia 34.9793
rfoot -9.8603 -3.86811
rtoes -18.8081
lfemur 0.184468 6.11916 -18.9935
ltibia 35.7145
lfoot -11.8857 -9.48472
ltoes -7.15622
